<mxfile host="app.diagrams.net" modified="2023-05-18T11:37:05.321Z" agent="Mozilla/5.0 (Macintosh; Intel Mac OS X 10_15_7) AppleWebKit/605.1.15 (KHTML, like Gecko) Version/16.1 Safari/605.1.15" etag="nNvWqkYzZeFAMy9Pl9sD" version="21.2.9" type="github">
  <diagram name="Page-1" id="mk69XIMOsQCtNaeMyzOs">
    <mxGraphModel dx="977" dy="659" grid="1" gridSize="10" guides="1" tooltips="1" connect="1" arrows="1" fold="1" page="1" pageScale="1" pageWidth="827" pageHeight="1169" math="0" shadow="0">
      <root>
        <mxCell id="0" />
        <mxCell id="1" parent="0" />
        <mxCell id="PMt_cTHawmlBE8nc0Fqk-24" style="edgeStyle=orthogonalEdgeStyle;rounded=0;orthogonalLoop=1;jettySize=auto;html=1;" edge="1" parent="1" source="PMt_cTHawmlBE8nc0Fqk-1" target="PMt_cTHawmlBE8nc0Fqk-6">
          <mxGeometry relative="1" as="geometry" />
        </mxCell>
        <mxCell id="PMt_cTHawmlBE8nc0Fqk-1" value="" style="dashed=0;outlineConnect=0;html=1;align=center;labelPosition=center;verticalLabelPosition=bottom;verticalAlign=top;shape=mxgraph.weblogos.github" vertex="1" parent="1">
          <mxGeometry x="370" y="180" width="75" height="75" as="geometry" />
        </mxCell>
        <mxCell id="PMt_cTHawmlBE8nc0Fqk-2" value="&lt;font style=&quot;font-size: 30px;&quot;&gt;Github&lt;/font&gt;" style="text;html=1;strokeColor=none;fillColor=none;align=center;verticalAlign=middle;whiteSpace=wrap;rounded=0;" vertex="1" parent="1">
          <mxGeometry x="356.25" y="130" width="102.5" height="40" as="geometry" />
        </mxCell>
        <mxCell id="PMt_cTHawmlBE8nc0Fqk-4" value="" style="rounded=0;whiteSpace=wrap;html=1;" vertex="1" parent="1">
          <mxGeometry x="260" y="330" width="300" height="270" as="geometry" />
        </mxCell>
        <mxCell id="PMt_cTHawmlBE8nc0Fqk-3" value="&lt;font style=&quot;font-size: 20px;&quot;&gt;hello-world&lt;br&gt;(Remote repository)&lt;br&gt;&lt;/font&gt;" style="text;html=1;strokeColor=none;fillColor=none;align=center;verticalAlign=middle;whiteSpace=wrap;rounded=0;" vertex="1" parent="1">
          <mxGeometry x="458.75" y="197.5" width="201.25" height="40" as="geometry" />
        </mxCell>
        <mxCell id="PMt_cTHawmlBE8nc0Fqk-6" value="" style="image;html=1;image=img/lib/clip_art/computers/Monitor_Tower_128x128.png" vertex="1" parent="1">
          <mxGeometry x="240" y="300" width="80" height="80" as="geometry" />
        </mxCell>
        <mxCell id="PMt_cTHawmlBE8nc0Fqk-10" style="edgeStyle=orthogonalEdgeStyle;rounded=0;orthogonalLoop=1;jettySize=auto;html=1;entryX=0.042;entryY=0.55;entryDx=0;entryDy=0;entryPerimeter=0;" edge="1" parent="1" source="PMt_cTHawmlBE8nc0Fqk-7" target="PMt_cTHawmlBE8nc0Fqk-9">
          <mxGeometry relative="1" as="geometry">
            <Array as="points">
              <mxPoint x="320" y="460" />
              <mxPoint x="320" y="460" />
              <mxPoint x="320" y="471" />
            </Array>
          </mxGeometry>
        </mxCell>
        <mxCell id="PMt_cTHawmlBE8nc0Fqk-15" style="edgeStyle=orthogonalEdgeStyle;rounded=0;orthogonalLoop=1;jettySize=auto;html=1;entryX=0;entryY=0.5;entryDx=0;entryDy=0;" edge="1" parent="1" source="PMt_cTHawmlBE8nc0Fqk-7" target="PMt_cTHawmlBE8nc0Fqk-12">
          <mxGeometry relative="1" as="geometry">
            <Array as="points">
              <mxPoint x="320" y="465" />
              <mxPoint x="320" y="465" />
              <mxPoint x="320" y="505" />
            </Array>
          </mxGeometry>
        </mxCell>
        <mxCell id="PMt_cTHawmlBE8nc0Fqk-17" style="edgeStyle=orthogonalEdgeStyle;rounded=0;orthogonalLoop=1;jettySize=auto;html=1;entryX=0;entryY=0.5;entryDx=0;entryDy=0;" edge="1" parent="1" source="PMt_cTHawmlBE8nc0Fqk-7" target="PMt_cTHawmlBE8nc0Fqk-13">
          <mxGeometry relative="1" as="geometry">
            <Array as="points">
              <mxPoint x="319" y="480" />
              <mxPoint x="320" y="535" />
            </Array>
          </mxGeometry>
        </mxCell>
        <mxCell id="PMt_cTHawmlBE8nc0Fqk-20" style="edgeStyle=orthogonalEdgeStyle;rounded=0;orthogonalLoop=1;jettySize=auto;html=1;entryX=0;entryY=0.5;entryDx=0;entryDy=0;exitX=0.514;exitY=0.996;exitDx=0;exitDy=0;exitPerimeter=0;" edge="1" parent="1" source="PMt_cTHawmlBE8nc0Fqk-7" target="PMt_cTHawmlBE8nc0Fqk-18">
          <mxGeometry relative="1" as="geometry" />
        </mxCell>
        <mxCell id="PMt_cTHawmlBE8nc0Fqk-7" value="" style="image;aspect=fixed;html=1;points=[];align=center;fontSize=12;image=img/lib/azure2/general/Folder_Blank.svg;" vertex="1" parent="1">
          <mxGeometry x="301" y="410" width="36.96" height="30" as="geometry" />
        </mxCell>
        <mxCell id="PMt_cTHawmlBE8nc0Fqk-8" value="&lt;font style=&quot;font-size: 20px;&quot;&gt;hello-world&lt;/font&gt;" style="text;html=1;strokeColor=none;fillColor=none;align=center;verticalAlign=middle;whiteSpace=wrap;rounded=0;" vertex="1" parent="1">
          <mxGeometry x="341.25" y="415" width="103.75" height="20" as="geometry" />
        </mxCell>
        <mxCell id="PMt_cTHawmlBE8nc0Fqk-9" value="" style="image;aspect=fixed;html=1;points=[];align=center;fontSize=12;image=img/lib/azure2/general/Folder_Blank.svg;" vertex="1" parent="1">
          <mxGeometry x="337.96" y="460" width="24.64" height="20" as="geometry" />
        </mxCell>
        <mxCell id="PMt_cTHawmlBE8nc0Fqk-11" value="&lt;font&gt;&lt;font style=&quot;font-size: 15px;&quot;&gt;.git (hidden folder)&lt;/font&gt;&lt;br&gt;&lt;/font&gt;" style="text;html=1;strokeColor=none;fillColor=none;align=center;verticalAlign=middle;whiteSpace=wrap;rounded=0;" vertex="1" parent="1">
          <mxGeometry x="362.6" y="460" width="127.4" height="20" as="geometry" />
        </mxCell>
        <mxCell id="PMt_cTHawmlBE8nc0Fqk-12" value="Dockerfile" style="text;html=1;strokeColor=none;fillColor=none;align=center;verticalAlign=middle;whiteSpace=wrap;rounded=0;" vertex="1" parent="1">
          <mxGeometry x="337.96" y="490" width="60" height="30" as="geometry" />
        </mxCell>
        <mxCell id="PMt_cTHawmlBE8nc0Fqk-13" value="&lt;a style=&quot;text-align: start; box-sizing: border-box; text-decoration: none; caret-color: rgb(14, 17, 22); font-family: -apple-system, BlinkMacSystemFont, &amp;quot;Segoe UI&amp;quot;, &amp;quot;Noto Sans&amp;quot;, Helvetica, Arial, sans-serif, &amp;quot;Apple Color Emoji&amp;quot;, &amp;quot;Segoe UI Emoji&amp;quot;; color: var(--color-fg-default) !important;&quot; href=&quot;https://github.com/vigneshsweekaran/hello-world/blob/master/README.md&quot; data-turbo-frame=&quot;repo-content-turbo-frame&quot; title=&quot;README.md&quot; class=&quot;js-navigation-open Link--primary&quot;&gt;&lt;font style=&quot;font-size: 12px;&quot;&gt;README.md&lt;/font&gt;&lt;/a&gt;" style="text;html=1;strokeColor=none;fillColor=none;align=center;verticalAlign=middle;whiteSpace=wrap;rounded=0;" vertex="1" parent="1">
          <mxGeometry x="337.96" y="520" width="82.04" height="30" as="geometry" />
        </mxCell>
        <mxCell id="PMt_cTHawmlBE8nc0Fqk-18" value="&lt;a style=&quot;text-align: start; box-sizing: border-box; text-decoration: none; caret-color: rgb(14, 17, 22); font-family: -apple-system, BlinkMacSystemFont, &amp;quot;Segoe UI&amp;quot;, &amp;quot;Noto Sans&amp;quot;, Helvetica, Arial, sans-serif, &amp;quot;Apple Color Emoji&amp;quot;, &amp;quot;Segoe UI Emoji&amp;quot;; font-size: 14px; color: var(--color-fg-default) !important;&quot; href=&quot;https://github.com/vigneshsweekaran/hello-world/blob/master/appspec.yml&quot; data-turbo-frame=&quot;repo-content-turbo-frame&quot; title=&quot;appspec.yml&quot; class=&quot;js-navigation-open Link--primary&quot;&gt;appspec.yml&lt;/a&gt;" style="text;html=1;strokeColor=none;fillColor=none;align=center;verticalAlign=middle;whiteSpace=wrap;rounded=0;" vertex="1" parent="1">
          <mxGeometry x="341.25" y="550" width="82.04" height="30" as="geometry" />
        </mxCell>
        <mxCell id="PMt_cTHawmlBE8nc0Fqk-21" value="&lt;font style=&quot;font-size: 20px;&quot;&gt;Local Repository&lt;/font&gt;" style="text;html=1;strokeColor=none;fillColor=none;align=center;verticalAlign=middle;whiteSpace=wrap;rounded=0;" vertex="1" parent="1">
          <mxGeometry x="580" y="450" width="110" height="40" as="geometry" />
        </mxCell>
        <mxCell id="PMt_cTHawmlBE8nc0Fqk-23" value="" style="endArrow=classic;html=1;rounded=0;exitX=0;exitY=0.5;exitDx=0;exitDy=0;strokeColor=#e32400;strokeWidth=5;" edge="1" parent="1" source="PMt_cTHawmlBE8nc0Fqk-21">
          <mxGeometry width="50" height="50" relative="1" as="geometry">
            <mxPoint x="390" y="520" as="sourcePoint" />
            <mxPoint x="500" y="470" as="targetPoint" />
          </mxGeometry>
        </mxCell>
      </root>
    </mxGraphModel>
  </diagram>
</mxfile>
